<svg width="150" height="150" viewBox="0 0 150 150" fill="none" xmlns="http://www.w3.org/2000/svg">
<path fill-rule="evenodd" clip-rule="evenodd" d="M0.379909 83.0698C0.379909 82.88 0.284912 82.5951 0.284912 82.4053C0.284912 82.5951 0.284912 82.88 0.379909 83.0698Z" fill="white"/>
<path fill-rule="evenodd" clip-rule="evenodd" d="M9.02477 39.3038C8.2648 40.6329 7.59982 42.057 6.83984 43.3861C17.4795 20.5063 39.4238 3.89241 65.4529 0.569623C66.6878 0.37975 67.9228 0.284804 69.2528 0.189868H69.3478C69.9177 0.189868 70.5827 0.0949398 71.1527 0.0949398C72.3877 3.05125e-06 73.6226 -2.74181e-06 74.9526 -2.74181e-06H75.0476C76.2825 -2.74181e-06 77.5175 3.05125e-06 78.8474 0.0949398C79.4174 0.0949398 80.0824 0.189868 80.6524 0.189868H80.7474C81.9823 0.284804 83.3123 0.37975 84.5473 0.569623C108.961 3.70253 129.766 18.5127 140.975 39.2089C146.77 49.8418 150 61.9937 150 74.9051C150 87.8165 146.77 100.063 140.975 110.696C129.671 131.487 108.961 146.297 84.5473 149.43C83.3123 149.62 82.0773 149.715 80.7474 149.81H80.6524C80.0824 149.81 79.4174 149.905 78.8474 149.905C77.5175 150 76.2825 150 75.0476 150H74.9526C73.7176 150 72.3877 150 71.1527 149.905C70.5827 149.905 69.9177 149.81 69.3478 149.81H69.2528C68.0178 149.715 66.6878 149.62 65.4529 149.43C39.4238 146.108 17.5745 129.494 6.93484 106.614C7.59982 108.038 8.35979 109.367 9.11977 110.791C18.8094 127.88 35.1489 139.082 53.6733 139.082C61.273 139.082 68.5878 137.184 75.1426 133.766C94.1419 123.892 107.346 101.297 107.346 75C107.346 48.7025 94.0469 26.1076 75.1426 16.2342C68.5878 12.8165 61.368 10.9177 53.6733 10.9177C35.0539 10.9177 18.7144 22.1203 9.02477 39.3038Z" fill="white"/>
<path fill-rule="evenodd" clip-rule="evenodd" d="M0.0949968 79.4622C0.0949968 79.1773 0.0949968 78.8925 0 78.6077C0 78.8925 0 79.1773 0.0949968 79.4622Z" fill="white"/>
<path fill-rule="evenodd" clip-rule="evenodd" d="M0.0949968 70.5377C0.0949968 70.8225 0.0949968 71.1073 0 71.3921C0 71.1073 0 70.8225 0.0949968 70.5377Z" fill="white"/>
<path fill-rule="evenodd" clip-rule="evenodd" d="M0.379909 66.9304C0.379909 67.1203 0.284912 67.4051 0.284912 67.595C0.284912 67.4051 0.284912 67.1203 0.379909 66.9304Z" fill="white"/>
<path fill-rule="evenodd" clip-rule="evenodd" d="M0 75.0002C0 62.0889 3.32489 49.842 9.0247 39.304C18.7144 22.2154 35.0538 11.0129 53.5782 11.0129C61.178 11.0129 68.4927 12.9116 75.0475 16.3294C56.0481 26.1078 42.7486 48.7028 42.7486 75.0002C42.7486 101.298 56.0481 123.893 75.0475 133.766C68.4927 137.184 61.273 139.083 53.5782 139.083C35.0538 139.083 18.7144 127.88 9.0247 110.791C3.32489 100.158 0 87.9116 0 75.0002Z" fill="url(#paint0_linear_185_1277)" fill-opacity="0.35"/>
<path fill-rule="evenodd" clip-rule="evenodd" d="M0.379909 83.0698C0.379909 82.88 0.284912 82.5951 0.284912 82.4053C0.284912 82.5951 0.284912 82.88 0.379909 83.0698Z" fill="url(#paint1_linear_185_1277)"/>
<path fill-rule="evenodd" clip-rule="evenodd" d="M9.02477 39.3038C8.2648 40.6329 7.59982 42.057 6.83984 43.3861C17.4795 20.5063 39.4238 3.89241 65.4529 0.569623C66.6878 0.37975 67.9228 0.284804 69.2528 0.189868H69.3478C69.9177 0.189868 70.5827 0.0949398 71.1527 0.0949398C72.3877 3.05125e-06 73.6226 -2.74181e-06 74.9526 -2.74181e-06H75.0476C76.2825 -2.74181e-06 77.5175 3.05125e-06 78.8474 0.0949398C79.4174 0.0949398 80.0824 0.189868 80.6524 0.189868H80.7474C81.9823 0.284804 83.3123 0.37975 84.5473 0.569623C108.961 3.70253 129.766 18.5127 140.975 39.2089C146.77 49.8418 150 61.9937 150 74.9051C150 87.8165 146.77 100.063 140.975 110.696C129.671 131.487 108.961 146.297 84.5473 149.43C83.3123 149.62 82.0773 149.715 80.7474 149.81H80.6524C80.0824 149.81 79.4174 149.905 78.8474 149.905C77.5175 150 76.2825 150 75.0476 150H74.9526C73.7176 150 72.3877 150 71.1527 149.905C70.5827 149.905 69.9177 149.81 69.3478 149.81H69.2528C68.0178 149.715 66.6878 149.62 65.4529 149.43C39.4238 146.108 17.5745 129.494 6.93484 106.614C7.59982 108.038 8.35979 109.367 9.11977 110.791C18.8094 127.88 35.1489 139.082 53.6733 139.082C61.273 139.082 68.5878 137.184 75.1426 133.766C94.1419 123.892 107.346 101.297 107.346 75C107.346 48.7025 94.0469 26.1076 75.1426 16.2342C68.5878 12.8165 61.368 10.9177 53.6733 10.9177C35.0539 10.9177 18.7144 22.1203 9.02477 39.3038Z" fill="url(#paint2_linear_185_1277)"/>
<path fill-rule="evenodd" clip-rule="evenodd" d="M0.0949968 79.4622C0.0949968 79.1773 0.0949968 78.8925 0 78.6077C0 78.8925 0 79.1773 0.0949968 79.4622Z" fill="url(#paint3_linear_185_1277)"/>
<path fill-rule="evenodd" clip-rule="evenodd" d="M0.0949968 70.5377C0.0949968 70.8225 0.0949968 71.1073 0 71.3921C0 71.1073 0 70.8225 0.0949968 70.5377Z" fill="url(#paint4_linear_185_1277)"/>
<path fill-rule="evenodd" clip-rule="evenodd" d="M0.379909 66.9304C0.379909 67.1203 0.284912 67.4051 0.284912 67.595C0.284912 67.4051 0.284912 67.1203 0.379909 66.9304Z" fill="url(#paint5_linear_185_1277)"/>
<defs>
<linearGradient id="paint0_linear_185_1277" x1="2.84271" y1="139.083" x2="105.083" y2="42.9605" gradientUnits="userSpaceOnUse">
<stop stop-color="#4AA8EC"/>
<stop offset="1" stop-color="#4300D1" stop-opacity="0.35"/>
</linearGradient>
<linearGradient id="paint1_linear_185_1277" x1="0.423607" y1="82.7651" x2="0.159257" y2="82.6898" gradientUnits="userSpaceOnUse">
<stop offset="0.0989583" stop-color="#41942B" stop-opacity="0.31"/>
<stop offset="0.6302" stop-color="#4AB1EC"/>
<stop offset="1" stop-color="#70EAE2" stop-opacity="0.76"/>
</linearGradient>
<linearGradient id="paint2_linear_185_1277" x1="12.2626" y1="150" x2="122.116" y2="-18.2105" gradientUnits="userSpaceOnUse">
<stop stop-color="#4AA8EC"/>
<stop offset="1" stop-color="#4300D1" stop-opacity="0.35"/>
</linearGradient>
<linearGradient id="paint3_linear_185_1277" x1="0.153135" y1="79.1132" x2="-0.140662" y2="79.0295" gradientUnits="userSpaceOnUse">
<stop offset="0.0989583" stop-color="#41942B" stop-opacity="0.31"/>
<stop offset="0.6302" stop-color="#4AB1EC"/>
<stop offset="1" stop-color="#70EAE2" stop-opacity="0.76"/>
</linearGradient>
<linearGradient id="paint4_linear_185_1277" x1="0.107061" y1="70.9452" x2="-0.0793047" y2="70.8922" gradientUnits="userSpaceOnUse">
<stop offset="0.0989583" stop-color="#41942B" stop-opacity="0.31"/>
<stop offset="0.6302" stop-color="#4AB1EC"/>
<stop offset="1" stop-color="#70EAE2" stop-opacity="0.76"/>
</linearGradient>
<linearGradient id="paint5_linear_185_1277" x1="0.361955" y1="67.2821" x2="0.241511" y2="67.2478" gradientUnits="userSpaceOnUse">
<stop offset="0.0989583" stop-color="#41942B" stop-opacity="0.31"/>
<stop offset="0.6302" stop-color="#4AB1EC"/>
<stop offset="1" stop-color="#70EAE2" stop-opacity="0.76"/>
</linearGradient>
</defs>
</svg>
