<svg width="32" height="37" viewBox="0 0 32 37" fill="none" xmlns="http://www.w3.org/2000/svg">
<path d="M15.9488 11.9689C19.254 11.9689 21.9333 9.2896 21.9333 5.98447C21.9333 2.67934 19.254 0 15.9488 0C12.6437 0 9.96436 2.67934 9.96436 5.98447C9.96436 9.2896 12.6437 11.9689 15.9488 11.9689Z" fill="#00FF2A"/>
<path d="M15.3858 12.4819C18.691 12.4819 21.3703 9.80256 21.3703 6.49743C21.3703 3.1923 18.691 0.512962 15.3858 0.512962C12.0807 0.512962 9.40137 3.1923 9.40137 6.49743C9.40137 9.80256 12.0807 12.4819 15.3858 12.4819Z" fill="#00FE2E"/>
<path d="M14.8221 12.9949C18.1272 12.9949 20.8066 10.3155 20.8066 7.01038C20.8066 3.70525 18.1272 1.02591 14.8221 1.02591C11.517 1.02591 8.83765 3.70525 8.83765 7.01038C8.83765 10.3155 11.517 12.9949 14.8221 12.9949Z" fill="#00FE33"/>
<path d="M14.2584 13.5078C17.5635 13.5078 20.2429 10.8285 20.2429 7.52333C20.2429 4.2182 17.5635 1.53886 14.2584 1.53886C10.9533 1.53886 8.27393 4.2182 8.27393 7.52333C8.27393 10.8285 10.9533 13.5078 14.2584 13.5078Z" fill="#00FD37"/>
<path d="M13.6954 14.018C17.0005 14.018 19.6799 11.3386 19.6799 8.03348C19.6799 4.72835 17.0005 2.04901 13.6954 2.04901C10.3903 2.04901 7.71094 4.72835 7.71094 8.03348C7.71094 11.3386 10.3903 14.018 13.6954 14.018Z" fill="#00FC3C"/>
<path d="M13.1322 14.5309C16.4373 14.5309 19.1166 11.8516 19.1166 8.54644C19.1166 5.24131 16.4373 2.56197 13.1322 2.56197C9.82704 2.56197 7.14771 5.24131 7.14771 8.54644C7.14771 11.8516 9.82704 14.5309 13.1322 14.5309Z" fill="#00FC40"/>
<path d="M12.5685 15.0439C15.8736 15.0439 18.5529 12.3645 18.5529 9.05939C18.5529 5.75426 15.8736 3.07492 12.5685 3.07492C9.26332 3.07492 6.58398 5.75426 6.58398 9.05939C6.58398 12.3645 9.26332 15.0439 12.5685 15.0439Z" fill="#00FB44"/>
<path d="M12.005 15.5568C15.3101 15.5568 17.9894 12.8775 17.9894 9.57235C17.9894 6.26722 15.3101 3.58788 12.005 3.58788C8.69985 3.58788 6.02051 6.26722 6.02051 9.57235C6.02051 12.8775 8.69985 15.5568 12.005 15.5568Z" fill="#00FB49"/>
<path d="M11.4391 16.067C14.7442 16.067 17.4235 13.3876 17.4235 10.0825C17.4235 6.77738 14.7442 4.09804 11.4391 4.09804C8.13393 4.09804 5.45459 6.77738 5.45459 10.0825C5.45459 13.3876 8.13393 16.067 11.4391 16.067Z" fill="#00FA4D"/>
<path d="M10.8753 16.5799C14.1805 16.5799 16.8598 13.9006 16.8598 10.5954C16.8598 7.29032 14.1805 4.61098 10.8753 4.61098C7.57021 4.61098 4.89087 7.29032 4.89087 10.5954C4.89087 13.9006 7.57021 16.5799 10.8753 16.5799Z" fill="#00F952"/>
<path d="M10.3121 17.0929C13.6172 17.0929 16.2966 14.4135 16.2966 11.1084C16.2966 7.80329 13.6172 5.12395 10.3121 5.12395C7.00697 5.12395 4.32764 7.80329 4.32764 11.1084C4.32764 14.4135 7.00697 17.0929 10.3121 17.0929Z" fill="#00F956"/>
<path d="M9.74863 17.6058C13.0538 17.6058 15.7331 14.9265 15.7331 11.6214C15.7331 8.31623 13.0538 5.63689 9.74863 5.63689C6.4435 5.63689 3.76416 8.31623 3.76416 11.6214C3.76416 14.9265 6.4435 17.6058 9.74863 17.6058Z" fill="#00F85B"/>
<path d="M9.1854 18.116C12.4905 18.116 15.1699 15.4366 15.1699 12.1315C15.1699 8.82638 12.4905 6.14704 9.1854 6.14704C5.88027 6.14704 3.20093 8.82638 3.20093 12.1315C3.20093 15.4366 5.88027 18.116 9.1854 18.116Z" fill="#00F75F"/>
<path d="M8.62168 18.6289C11.9268 18.6289 14.6061 15.9496 14.6061 12.6445C14.6061 9.33934 11.9268 6.66 8.62168 6.66C5.31655 6.66 2.63721 9.33934 2.63721 12.6445C2.63721 15.9496 5.31655 18.6289 8.62168 18.6289Z" fill="#00F763"/>
<path d="M8.05869 19.1419C11.3638 19.1419 14.0432 16.4626 14.0432 13.1574C14.0432 9.85229 11.3638 7.17295 8.05869 7.17295C4.75356 7.17295 2.07422 9.85229 2.07422 13.1574C2.07422 16.4626 4.75356 19.1419 8.05869 19.1419Z" fill="#00F668"/>
<path d="M7.49497 19.6548C10.8001 19.6548 13.4794 16.9755 13.4794 13.6704C13.4794 10.3652 10.8001 7.6859 7.49497 7.6859C4.18984 7.6859 1.5105 10.3652 1.5105 13.6704C1.5105 16.9755 4.18984 19.6548 7.49497 19.6548Z" fill="#00F56C"/>
<path d="M6.94858 20.2491C10.2537 20.2491 12.9331 17.5697 12.9331 14.2646C12.9331 10.9595 10.2537 8.28014 6.94858 8.28014C3.64345 8.28014 0.964111 10.9595 0.964111 14.2646C0.964111 17.5697 3.64345 20.2491 6.94858 20.2491Z" fill="#00F571"/>
<path d="M6.63437 20.947C9.9395 20.947 12.6188 18.2677 12.6188 14.9626C12.6188 11.6574 9.9395 8.9781 6.63437 8.9781C3.32924 8.9781 0.649902 11.6574 0.649902 14.9626C0.649902 18.2677 3.32924 20.947 6.63437 20.947Z" fill="#00F475"/>
<path d="M6.56162 21.6786C9.86675 21.6786 12.5461 18.9993 12.5461 15.6942C12.5461 12.389 9.86675 9.7097 6.56162 9.7097C3.25649 9.7097 0.577148 12.389 0.577148 15.6942C0.577148 18.9993 3.25649 21.6786 6.56162 21.6786Z" fill="#00F479"/>
<path d="M6.71274 22.3906C10.0179 22.3906 12.6972 19.7113 12.6972 16.4061C12.6972 13.101 10.0179 10.4217 6.71274 10.4217C3.40761 10.4217 0.728271 13.101 0.728271 16.4061C0.728271 19.7113 3.40761 22.3906 6.71274 22.3906Z" fill="#00F37E"/>
<path d="M7.06626 23.0241C10.3714 23.0241 13.0507 20.3447 13.0507 17.0396C13.0507 13.7345 10.3714 11.0551 7.06626 11.0551C3.76113 11.0551 1.08179 13.7345 1.08179 17.0396C1.08179 20.3447 3.76113 23.0241 7.06626 23.0241Z" fill="#00F282"/>
<path d="M7.59604 23.5314C10.9012 23.5314 13.5805 20.8521 13.5805 17.547C13.5805 14.2418 10.9012 11.5625 7.59604 11.5625C4.29091 11.5625 1.61157 14.2418 1.61157 17.547C1.61157 20.8521 4.29091 23.5314 7.59604 23.5314Z" fill="#00F287"/>
<path d="M8.28818 23.8538C11.5933 23.8538 14.2727 21.1745 14.2727 17.8693C14.2727 14.5642 11.5933 11.8848 8.28818 11.8848C4.98305 11.8848 2.30371 14.5642 2.30371 17.8693C2.30371 21.1745 4.98305 23.8538 8.28818 23.8538Z" fill="#00F18B"/>
<path d="M9.09262 23.9407C12.3978 23.9407 15.0771 21.2613 15.0771 17.9562C15.0771 14.6511 12.3978 11.9717 9.09262 11.9717C5.78749 11.9717 3.10815 14.6511 3.10815 17.9562C3.10815 21.2613 5.78749 23.9407 9.09262 23.9407Z" fill="#00F090"/>
<path d="M9.85532 23.9407C13.1605 23.9407 15.8398 21.2613 15.8398 17.9562C15.8398 14.6511 13.1605 11.9717 9.85532 11.9717C6.55019 11.9717 3.87085 14.6511 3.87085 17.9562C3.87085 21.2613 6.55019 23.9407 9.85532 23.9407Z" fill="#00F094"/>
<path d="M10.6173 23.9407C13.9224 23.9407 16.6018 21.2613 16.6018 17.9562C16.6018 14.6511 13.9224 11.9717 10.6173 11.9717C7.31215 11.9717 4.63281 14.6511 4.63281 17.9562C4.63281 21.2613 7.31215 23.9407 10.6173 23.9407Z" fill="#00EF98"/>
<path d="M11.3773 23.9407C14.6824 23.9407 17.3618 21.2613 17.3618 17.9562C17.3618 14.6511 14.6824 11.9717 11.3773 11.9717C8.07216 11.9717 5.39282 14.6511 5.39282 17.9562C5.39282 21.2613 8.07216 23.9407 11.3773 23.9407Z" fill="#00EF9D"/>
<path d="M12.14 23.9407C15.4451 23.9407 18.1245 21.2613 18.1245 17.9562C18.1245 14.6511 15.4451 11.9717 12.14 11.9717C8.83486 11.9717 6.15552 14.6511 6.15552 17.9562C6.15552 21.2613 8.83486 23.9407 12.14 23.9407Z" fill="#00EEA1"/>
<path d="M12.9022 23.9407C16.2073 23.9407 18.8867 21.2613 18.8867 17.9562C18.8867 14.6511 16.2073 11.9717 12.9022 11.9717C9.59706 11.9717 6.91772 14.6511 6.91772 17.9562C6.91772 21.2613 9.59706 23.9407 12.9022 23.9407Z" fill="#00EDA6"/>
<path d="M13.662 23.9407C16.9671 23.9407 19.6464 21.2613 19.6464 17.9562C19.6464 14.6511 16.9671 11.9717 13.662 11.9717C10.3568 11.9717 7.67749 14.6511 7.67749 17.9562C7.67749 21.2613 10.3568 23.9407 13.662 23.9407Z" fill="#00EDAA"/>
<path d="M14.4242 23.9407C17.7293 23.9407 20.4086 21.2613 20.4086 17.9562C20.4086 14.6511 17.7293 11.9717 14.4242 11.9717C11.119 11.9717 8.4397 14.6511 8.4397 17.9562C8.4397 21.2613 11.119 23.9407 14.4242 23.9407Z" fill="#00ECAE"/>
<path d="M15.1861 23.9407C18.4913 23.9407 21.1706 21.2613 21.1706 17.9562C21.1706 14.6511 18.4913 11.9717 15.1861 11.9717C11.881 11.9717 9.20166 14.6511 9.20166 17.9562C9.20166 21.2613 11.881 23.9407 15.1861 23.9407Z" fill="#00EBB3"/>
<path d="M15.9461 23.9407C19.2513 23.9407 21.9306 21.2613 21.9306 17.9562C21.9306 14.6511 19.2513 11.9717 15.9461 11.9717C12.641 11.9717 9.96167 14.6511 9.96167 17.9562C9.96167 21.2613 12.641 23.9407 15.9461 23.9407Z" fill="#00EBB7"/>
<path d="M16.7088 23.9407C20.014 23.9407 22.6933 21.2613 22.6933 17.9562C22.6933 14.6511 20.014 11.9717 16.7088 11.9717C13.4037 11.9717 10.7244 14.6511 10.7244 17.9562C10.7244 21.2613 13.4037 23.9407 16.7088 23.9407Z" fill="#00EABC"/>
<path d="M17.471 23.9407C20.7762 23.9407 23.4555 21.2613 23.4555 17.9562C23.4555 14.6511 20.7762 11.9717 17.471 11.9717C14.1659 11.9717 11.4866 14.6511 11.4866 17.9562C11.4866 21.2613 14.1659 23.9407 17.471 23.9407Z" fill="#00E9C0"/>
<path d="M18.233 23.9407C21.5381 23.9407 24.2175 21.2613 24.2175 17.9562C24.2175 14.6511 21.5381 11.9717 18.233 11.9717C14.9279 11.9717 12.2485 14.6511 12.2485 17.9562C12.2485 21.2613 14.9279 23.9407 18.233 23.9407Z" fill="#00E9C5"/>
<path d="M18.993 23.9407C22.2981 23.9407 24.9775 21.2613 24.9775 17.9562C24.9775 14.6511 22.2981 11.9717 18.993 11.9717C15.6879 11.9717 13.0085 14.6511 13.0085 17.9562C13.0085 21.2613 15.6879 23.9407 18.993 23.9407Z" fill="#00E8C9"/>
<path d="M19.7557 23.9407C23.0608 23.9407 25.7402 21.2613 25.7402 17.9562C25.7402 14.6511 23.0608 11.9717 19.7557 11.9717C16.4506 11.9717 13.7712 14.6511 13.7712 17.9562C13.7712 21.2613 16.4506 23.9407 19.7557 23.9407Z" fill="#00E8CD"/>
<path d="M20.5177 23.9407C23.8228 23.9407 26.5021 21.2613 26.5021 17.9562C26.5021 14.6511 23.8228 11.9717 20.5177 11.9717C17.2125 11.9717 14.5332 14.6511 14.5332 17.9562C14.5332 21.2613 17.2125 23.9407 20.5177 23.9407Z" fill="#00E7D2"/>
<path d="M21.2777 23.9407C24.5828 23.9407 27.2622 21.2613 27.2622 17.9562C27.2622 14.6511 24.5828 11.9717 21.2777 11.9717C17.9726 11.9717 15.2932 14.6511 15.2932 17.9562C15.2932 21.2613 17.9726 23.9407 21.2777 23.9407Z" fill="#00E6D6"/>
<path d="M22.0399 23.9407C25.345 23.9407 28.0244 21.2613 28.0244 17.9562C28.0244 14.6511 25.345 11.9717 22.0399 11.9717C18.7348 11.9717 16.0554 14.6511 16.0554 17.9562C16.0554 21.2613 18.7348 23.9407 22.0399 23.9407Z" fill="#00E6DB"/>
<path d="M22.8026 23.9407C26.1077 23.9407 28.7871 21.2613 28.7871 17.9562C28.7871 14.6511 26.1077 11.9717 22.8026 11.9717C19.4975 11.9717 16.8181 14.6511 16.8181 17.9562C16.8181 21.2613 19.4975 23.9407 22.8026 23.9407Z" fill="#00E5DF"/>
<path d="M22.9537 23.9435C26.2588 23.9435 28.9382 21.2642 28.9382 17.959C28.9382 14.6539 26.2588 11.9746 22.9537 11.9746C19.6486 11.9746 16.9692 14.6539 16.9692 17.959C16.9692 21.2642 19.6486 23.9435 22.9537 23.9435Z" fill="#03E5E0"/>
<path d="M23.0992 23.9575C26.4043 23.9575 29.0837 21.2782 29.0837 17.973C29.0837 14.6679 26.4043 11.9886 23.0992 11.9886C19.7941 11.9886 17.1147 14.6679 17.1147 17.973C17.1147 21.2782 19.7941 23.9575 23.0992 23.9575Z" fill="#06E4E0"/>
<path d="M23.245 23.9799C26.5501 23.9799 29.2294 21.3006 29.2294 17.9954C29.2294 14.6903 26.5501 12.011 23.245 12.011C19.9398 12.011 17.2605 14.6903 17.2605 17.9954C17.2605 21.3006 19.9398 23.9799 23.245 23.9799Z" fill="#09E4E1"/>
<path d="M23.3851 24.008C26.6902 24.008 29.3696 21.3286 29.3696 18.0235C29.3696 14.7184 26.6902 12.039 23.3851 12.039C20.08 12.039 17.4006 14.7184 17.4006 18.0235C17.4006 21.3286 20.08 24.008 23.3851 24.008Z" fill="#0CE4E2"/>
<path d="M23.5201 24.0444C26.8252 24.0444 29.5046 21.3651 29.5046 18.0599C29.5046 14.7548 26.8252 12.0755 23.5201 12.0755C20.215 12.0755 17.5356 14.7548 17.5356 18.0599C17.5356 21.3651 20.215 24.0444 23.5201 24.0444Z" fill="#0FE3E3"/>
<path d="M23.652 24.0892C26.9571 24.0892 29.6364 21.4099 29.6364 18.1048C29.6364 14.7996 26.9571 12.1203 23.652 12.1203C20.3468 12.1203 17.6675 14.7996 17.6675 18.1048C17.6675 21.4099 20.3468 24.0892 23.652 24.0892Z" fill="#12E3E3"/>
<path d="M23.7782 24.1425C27.0833 24.1425 29.7626 21.4632 29.7626 18.158C29.7626 14.8529 27.0833 12.1736 23.7782 12.1736C20.473 12.1736 17.7937 14.8529 17.7937 18.158C17.7937 21.4632 20.473 24.1425 23.7782 24.1425Z" fill="#16E3E4"/>
<path d="M23.9015 24.2014C27.2066 24.2014 29.8859 21.522 29.8859 18.2169C29.8859 14.9118 27.2066 12.2324 23.9015 12.2324C20.5963 12.2324 17.917 14.9118 17.917 18.2169C17.917 21.522 20.5963 24.2014 23.9015 24.2014Z" fill="#19E2E5"/>
<path d="M24.0186 24.2658C27.3238 24.2658 30.0031 21.5865 30.0031 18.2814C30.0031 14.9762 27.3238 12.2969 24.0186 12.2969C20.7135 12.2969 18.0342 14.9762 18.0342 18.2814C18.0342 21.5865 20.7135 24.2658 24.0186 24.2658Z" fill="#1CE2E6"/>
<path d="M24.131 24.3359C27.4361 24.3359 30.1154 21.6566 30.1154 18.3514C30.1154 15.0463 27.4361 12.367 24.131 12.367C20.8258 12.367 18.1465 15.0463 18.1465 18.3514C18.1465 21.6566 20.8258 24.3359 24.131 24.3359Z" fill="#1FE2E6"/>
<path d="M24.2372 24.4144C27.5423 24.4144 30.2216 21.7351 30.2216 18.4299C30.2216 15.1248 27.5423 12.4455 24.2372 12.4455C20.932 12.4455 18.2527 15.1248 18.2527 18.4299C18.2527 21.7351 20.932 24.4144 24.2372 24.4144Z" fill="#22E1E7"/>
<path d="M24.3412 24.4957C27.6463 24.4957 30.3256 21.8163 30.3256 18.5112C30.3256 15.2061 27.6463 12.5267 24.3412 12.5267C21.036 12.5267 18.3567 15.2061 18.3567 18.5112C18.3567 21.8163 21.036 24.4957 24.3412 24.4957Z" fill="#25E1E8"/>
<path d="M24.4395 24.5854C27.7447 24.5854 30.424 21.9061 30.424 18.6009C30.424 15.2958 27.7447 12.6164 24.4395 12.6164C21.1344 12.6164 18.4551 15.2958 18.4551 18.6009C18.4551 21.9061 21.1344 24.5854 24.4395 24.5854Z" fill="#28E1E9"/>
<path d="M24.5318 24.6779C27.837 24.6779 30.5163 21.9985 30.5163 18.6934C30.5163 15.3883 27.837 12.7089 24.5318 12.7089C21.2267 12.7089 18.5474 15.3883 18.5474 18.6934C18.5474 21.9985 21.2267 24.6779 24.5318 24.6779Z" fill="#2BE0E9"/>
<path d="M24.6185 24.776C27.9236 24.776 30.603 22.0967 30.603 18.7915C30.603 15.4864 27.9236 12.8071 24.6185 12.8071C21.3134 12.8071 18.634 15.4864 18.634 18.7915C18.634 22.0967 21.3134 24.776 24.6185 24.776Z" fill="#2EE0EA"/>
<path d="M24.7003 24.8769C28.0054 24.8769 30.6848 22.1976 30.6848 18.8924C30.6848 15.5873 28.0054 12.908 24.7003 12.908C21.3952 12.908 18.7158 15.5873 18.7158 18.8924C18.7158 22.1976 21.3952 24.8769 24.7003 24.8769Z" fill="#31E0EB"/>
<path d="M24.776 24.9834C28.0811 24.9834 30.7604 22.3041 30.7604 18.9989C30.7604 15.6938 28.0811 13.0145 24.776 13.0145C21.4708 13.0145 18.7915 15.6938 18.7915 18.9989C18.7915 22.3041 21.4708 24.9834 24.776 24.9834Z" fill="#34DFEB"/>
<path d="M24.846 25.0927C28.1512 25.0927 30.8305 22.4134 30.8305 19.1083C30.8305 15.8031 28.1512 13.1238 24.846 13.1238C21.5409 13.1238 18.8616 15.8031 18.8616 19.1083C18.8616 22.4134 21.5409 25.0927 24.846 25.0927Z" fill="#37DFEC"/>
<path d="M24.9076 25.2077C28.2127 25.2077 30.892 22.5283 30.892 19.2232C30.892 15.9181 28.2127 13.2387 24.9076 13.2387C21.6024 13.2387 18.9231 15.9181 18.9231 19.2232C18.9231 22.5283 21.6024 25.2077 24.9076 25.2077Z" fill="#3ADFED"/>
<path d="M24.9666 25.3254C28.2718 25.3254 30.9511 22.646 30.9511 19.3409C30.9511 16.0358 28.2718 13.3564 24.9666 13.3564C21.6615 13.3564 18.9822 16.0358 18.9822 19.3409C18.9822 22.646 21.6615 25.3254 24.9666 25.3254Z" fill="#3DDEEE"/>
<path d="M25.0167 25.4431C28.3218 25.4431 31.0012 22.7638 31.0012 19.4586C31.0012 16.1535 28.3218 13.4742 25.0167 13.4742C21.7116 13.4742 19.0322 16.1535 19.0322 19.4586C19.0322 22.7638 21.7116 25.4431 25.0167 25.4431Z" fill="#41DEEE"/>
<path d="M25.0616 25.5664C28.3667 25.5664 31.0461 22.8871 31.0461 19.582C31.0461 16.2768 28.3667 13.5975 25.0616 13.5975C21.7565 13.5975 19.0771 16.2768 19.0771 19.582C19.0771 22.8871 21.7565 25.5664 25.0616 25.5664Z" fill="#44DDEF"/>
<path d="M25.1004 25.6898C28.4056 25.6898 31.0849 23.0105 31.0849 19.7053C31.0849 16.4002 28.4056 13.7208 25.1004 13.7208C21.7953 13.7208 19.116 16.4002 19.116 19.7053C19.116 23.0105 21.7953 25.6898 25.1004 25.6898Z" fill="#47DDF0"/>
<path d="M25.1317 25.8159C28.4368 25.8159 31.1162 23.1366 31.1162 19.8314C31.1162 16.5263 28.4368 13.847 25.1317 13.847C21.8266 13.847 19.1472 16.5263 19.1472 19.8314C19.1472 23.1366 21.8266 25.8159 25.1317 25.8159Z" fill="#4ADDF1"/>
<path d="M25.1566 25.9449C28.4617 25.9449 31.1411 23.2655 31.1411 19.9604C31.1411 16.6553 28.4617 13.9759 25.1566 13.9759C21.8515 13.9759 19.1721 16.6553 19.1721 19.9604C19.1721 23.2655 21.8515 25.9449 25.1566 25.9449Z" fill="#4DDCF1"/>
<path d="M25.1766 26.0738C28.4817 26.0738 31.1611 23.3945 31.1611 20.0893C31.1611 16.7842 28.4817 14.1049 25.1766 14.1049C21.8715 14.1049 19.1921 16.7842 19.1921 20.0893C19.1921 23.3945 21.8715 26.0738 25.1766 26.0738Z" fill="#50DCF2"/>
<path d="M25.1849 26.2027C28.49 26.2027 31.1694 23.5234 31.1694 20.2183C31.1694 16.9131 28.49 14.2338 25.1849 14.2338C21.8798 14.2338 19.2004 16.9131 19.2004 20.2183C19.2004 23.5234 21.8798 26.2027 25.1849 26.2027Z" fill="#53DCF3"/>
<path d="M25.1905 26.3345C28.4957 26.3345 31.175 23.6551 31.175 20.35C31.175 17.0449 28.4957 14.3655 25.1905 14.3655C21.8854 14.3655 19.2061 17.0449 19.2061 20.35C19.2061 23.6551 21.8854 26.3345 25.1905 26.3345Z" fill="#56DBF3"/>
<path d="M25.1878 26.4662C28.493 26.4662 31.1723 23.7869 31.1723 20.4818C31.1723 17.1766 28.493 14.4973 25.1878 14.4973C21.8827 14.4973 19.2034 17.1766 19.2034 20.4818C19.2034 23.7869 21.8827 26.4662 25.1878 26.4662Z" fill="#59DBF4"/>
<path d="M25.1766 26.598C28.4817 26.598 31.1611 23.9186 31.1611 20.6135C31.1611 17.3084 28.4817 14.629 25.1766 14.629C21.8715 14.629 19.1921 17.3084 19.1921 20.6135C19.1921 23.9186 21.8715 26.598 25.1766 26.598Z" fill="#5CDBF5"/>
<path d="M25.1566 26.7297C28.4617 26.7297 31.1411 24.0504 31.1411 20.7452C31.1411 17.4401 28.4617 14.7608 25.1566 14.7608C21.8515 14.7608 19.1721 17.4401 19.1721 20.7452C19.1721 24.0504 21.8515 26.7297 25.1566 26.7297Z" fill="#5FDAF6"/>
<path d="M25.1317 26.8586C28.4368 26.8586 31.1162 24.1793 31.1162 20.8742C31.1162 17.569 28.4368 14.8897 25.1317 14.8897C21.8266 14.8897 19.1472 17.569 19.1472 20.8742C19.1472 24.1793 21.8266 26.8586 25.1317 26.8586Z" fill="#62DAF6"/>
<path d="M25.0978 26.9904C28.4029 26.9904 31.0822 24.311 31.0822 21.0059C31.0822 17.7008 28.4029 15.0214 25.0978 15.0214C21.7926 15.0214 19.1133 17.7008 19.1133 21.0059C19.1133 24.311 21.7926 26.9904 25.0978 26.9904Z" fill="#65DAF7"/>
<path d="M25.056 27.1193C28.3611 27.1193 31.0405 24.44 31.0405 21.1349C31.0405 17.8297 28.3611 15.1504 25.056 15.1504C21.7509 15.1504 19.0715 17.8297 19.0715 21.1349C19.0715 24.44 21.7509 27.1193 25.056 27.1193Z" fill="#68D9F8"/>
<path d="M25.0055 27.2455C28.3106 27.2455 30.9899 24.5661 30.9899 21.261C30.9899 17.9559 28.3106 15.2765 25.0055 15.2765C21.7003 15.2765 19.021 17.9559 19.021 21.261C19.021 24.5661 21.7003 27.2455 25.0055 27.2455Z" fill="#6CD9F9"/>
<path d="M24.9466 27.3716C28.2518 27.3716 30.9311 24.6923 30.9311 21.3871C30.9311 18.082 28.2518 15.4027 24.9466 15.4027C21.6415 15.4027 18.9622 18.082 18.9622 21.3871C18.9622 24.6923 21.6415 27.3716 24.9466 27.3716Z" fill="#6FD9F9"/>
<path d="M24.8822 27.4949C28.1873 27.4949 30.8666 24.8156 30.8666 21.5105C30.8666 18.2053 28.1873 15.526 24.8822 15.526C21.577 15.526 18.8977 18.2053 18.8977 21.5105C18.8977 24.8156 21.577 27.4949 24.8822 27.4949Z" fill="#72D8FA"/>
<path d="M24.8065 27.6183C28.1116 27.6183 30.791 24.9389 30.791 21.6338C30.791 18.3287 28.1116 15.6493 24.8065 15.6493C21.5014 15.6493 18.822 18.3287 18.822 21.6338C18.822 24.9389 21.5014 27.6183 24.8065 27.6183Z" fill="#75D8FB"/>
<path d="M24.7225 27.736C28.0276 27.736 30.707 25.0566 30.707 21.7515C30.707 18.4464 28.0276 15.767 24.7225 15.767C21.4174 15.767 18.738 18.4464 18.738 21.7515C18.738 25.0566 21.4174 27.736 24.7225 27.736Z" fill="#78D8FC"/>
<path d="M24.6297 27.8537C27.9349 27.8537 30.6142 25.1744 30.6142 21.8692C30.6142 18.5641 27.9349 15.8848 24.6297 15.8848C21.3246 15.8848 18.6453 18.5641 18.6453 21.8692C18.6453 25.1744 21.3246 27.8537 24.6297 27.8537Z" fill="#7BD7FC"/>
<path d="M24.5291 27.9658C27.8343 27.9658 30.5136 25.2865 30.5136 21.9814C30.5136 18.6762 27.8343 15.9969 24.5291 15.9969C21.224 15.9969 18.5447 18.6762 18.5447 21.9814C18.5447 25.2865 21.224 27.9658 24.5291 27.9658Z" fill="#7ED7FD"/>
<path d="M24.3216 28.1845C27.6268 28.1845 30.3061 25.5051 30.3061 22.2C30.3061 18.8949 27.6268 16.2155 24.3216 16.2155C21.0165 16.2155 18.3372 18.8949 18.3372 22.2C18.3372 25.5051 21.0165 28.1845 24.3216 28.1845Z" fill="#81D7FD"/>
<path d="M24.1117 28.4059C27.4168 28.4059 30.0961 25.7266 30.0961 22.4214C30.0961 19.1163 27.4168 16.437 24.1117 16.437C20.8065 16.437 18.1272 19.1163 18.1272 22.4214C18.1272 25.7266 20.8065 28.4059 24.1117 28.4059Z" fill="#83D7FD"/>
<path d="M23.9015 28.6273C27.2066 28.6273 29.8859 25.948 29.8859 22.6429C29.8859 19.3377 27.2066 16.6584 23.9015 16.6584C20.5963 16.6584 17.917 19.3377 17.917 22.6429C17.917 25.948 20.5963 28.6273 23.9015 28.6273Z" fill="#86D6FD"/>
<path d="M23.6935 28.846C26.9986 28.846 29.6779 26.1666 29.6779 22.8615C29.6779 19.5564 26.9986 16.877 23.6935 16.877C20.3883 16.877 17.709 19.5564 17.709 22.8615C17.709 26.1666 20.3883 28.846 23.6935 28.846Z" fill="#88D6FD"/>
<path d="M23.4835 29.0674C26.7886 29.0674 29.468 26.3881 29.468 23.083C29.468 19.7778 26.7886 17.0985 23.4835 17.0985C20.1784 17.0985 17.499 19.7778 17.499 23.083C17.499 26.3881 20.1784 29.0674 23.4835 29.0674Z" fill="#8BD6FD"/>
<path d="M23.2733 29.2889C26.5784 29.2889 29.2578 26.6095 29.2578 23.3044C29.2578 19.9993 26.5784 17.3199 23.2733 17.3199C19.9682 17.3199 17.2888 19.9993 17.2888 23.3044C17.2888 26.6095 19.9682 29.2889 23.2733 29.2889Z" fill="#8ED6FD"/>
<path d="M23.066 29.5075C26.3711 29.5075 29.0505 26.8282 29.0505 23.523C29.0505 20.2179 26.3711 17.5386 23.066 17.5386C19.7609 17.5386 17.0815 20.2179 17.0815 23.523C17.0815 26.8282 19.7609 29.5075 23.066 29.5075Z" fill="#90D6FC"/>
<path d="M22.8558 29.7289C26.1609 29.7289 28.8403 27.0496 28.8403 23.7445C28.8403 20.4393 26.1609 17.76 22.8558 17.76C19.5507 17.76 16.8713 20.4393 16.8713 23.7445C16.8713 27.0496 19.5507 29.7289 22.8558 29.7289Z" fill="#93D5FC"/>
<path d="M22.6451 29.9476C25.9502 29.9476 28.6296 27.2682 28.6296 23.9631C28.6296 20.658 25.9502 17.9786 22.6451 17.9786C19.34 17.9786 16.6606 20.658 16.6606 23.9631C16.6606 27.2682 19.34 29.9476 22.6451 29.9476Z" fill="#95D5FC"/>
<path d="M22.4378 30.169C25.743 30.169 28.4223 27.4897 28.4223 24.1846C28.4223 20.8794 25.743 18.2001 22.4378 18.2001C19.1327 18.2001 16.4534 20.8794 16.4534 24.1846C16.4534 27.4897 19.1327 30.169 22.4378 30.169Z" fill="#98D5FC"/>
<path d="M22.2276 30.3905C25.5328 30.3905 28.2121 27.7111 28.2121 24.406C28.2121 21.1009 25.5328 18.4215 22.2276 18.4215C18.9225 18.4215 16.2432 21.1009 16.2432 24.406C16.2432 27.7111 18.9225 30.3905 22.2276 30.3905Z" fill="#9AD5FC"/>
<path d="M22.0177 30.6091C25.3228 30.6091 28.0021 27.9298 28.0021 24.6246C28.0021 21.3195 25.3228 18.6402 22.0177 18.6402C18.7125 18.6402 16.0332 21.3195 16.0332 24.6246C16.0332 27.9298 18.7125 30.6091 22.0177 30.6091Z" fill="#9DD5FC"/>
<path d="M21.8102 30.8305C25.1153 30.8305 27.7946 28.1512 27.7946 24.8461C27.7946 21.5409 25.1153 18.8616 21.8102 18.8616C18.505 18.8616 15.8257 21.5409 15.8257 24.8461C15.8257 28.1512 18.505 30.8305 21.8102 30.8305Z" fill="#A0D4FC"/>
<path d="M21.6002 31.0492C24.9053 31.0492 27.5847 28.3698 27.5847 25.0647C27.5847 21.7596 24.9053 19.0802 21.6002 19.0802C18.2951 19.0802 15.6157 21.7596 15.6157 25.0647C15.6157 28.3698 18.2951 31.0492 21.6002 31.0492Z" fill="#A2D4FC"/>
<path d="M21.39 31.2706C24.6951 31.2706 27.3745 28.5913 27.3745 25.2861C27.3745 21.981 24.6951 19.3017 21.39 19.3017C18.0849 19.3017 15.4055 21.981 15.4055 25.2861C15.4055 28.5913 18.0849 31.2706 21.39 31.2706Z" fill="#A5D4FC"/>
<path d="M21.182 31.4921C24.4871 31.4921 27.1665 28.8127 27.1665 25.5076C27.1665 22.2025 24.4871 19.5231 21.182 19.5231C17.8768 19.5231 15.1975 22.2025 15.1975 25.5076C15.1975 28.8127 17.8768 31.4921 21.182 31.4921Z" fill="#A7D4FC"/>
<path d="M20.972 31.7107C24.2772 31.7107 26.9565 29.0313 26.9565 25.7262C26.9565 22.4211 24.2772 19.7417 20.972 19.7417C17.6669 19.7417 14.9875 22.4211 14.9875 25.7262C14.9875 29.0313 17.6669 31.7107 20.972 31.7107Z" fill="#AAD4FC"/>
<path d="M20.7618 31.9321C24.0669 31.9321 26.7463 29.2528 26.7463 25.9477C26.7463 22.6425 24.0669 19.9632 20.7618 19.9632C17.4567 19.9632 14.7773 22.6425 14.7773 25.9477C14.7773 29.2528 17.4567 31.9321 20.7618 31.9321Z" fill="#ADD3FC"/>
<path d="M20.5545 32.1508C23.8597 32.1508 26.539 29.4714 26.539 26.1663C26.539 22.8612 23.8597 20.1818 20.5545 20.1818C17.2494 20.1818 14.5701 22.8612 14.5701 26.1663C14.5701 29.4714 17.2494 32.1508 20.5545 32.1508Z" fill="#AFD3FC"/>
<path d="M20.3443 32.3722C23.6495 32.3722 26.3288 29.6929 26.3288 26.3877C26.3288 23.0826 23.6495 20.4033 20.3443 20.4033C17.0392 20.4033 14.3599 23.0826 14.3599 26.3877C14.3599 29.6929 17.0392 32.3722 20.3443 32.3722Z" fill="#B2D3FC"/>
<path d="M20.1336 32.5936C23.4388 32.5936 26.1181 29.9143 26.1181 26.6092C26.1181 23.304 23.4388 20.6247 20.1336 20.6247C16.8285 20.6247 14.1492 23.304 14.1492 26.6092C14.1492 29.9143 16.8285 32.5936 20.1336 32.5936Z" fill="#B4D3FB"/>
<path d="M19.9264 32.8123C23.2315 32.8123 25.9108 30.1329 25.9108 26.8278C25.9108 23.5227 23.2315 20.8433 19.9264 20.8433C16.6212 20.8433 13.9419 23.5227 13.9419 26.8278C13.9419 30.1329 16.6212 32.8123 19.9264 32.8123Z" fill="#B7D3FB"/>
<path d="M19.7162 33.0337C23.0213 33.0337 25.7006 30.3544 25.7006 27.0492C25.7006 23.7441 23.0213 21.0648 19.7162 21.0648C16.411 21.0648 13.7317 23.7441 13.7317 27.0492C13.7317 30.3544 16.411 33.0337 19.7162 33.0337Z" fill="#B9D3FB"/>
<path d="M19.506 33.2523C22.8111 33.2523 25.4904 30.573 25.4904 27.2679C25.4904 23.9627 22.8111 21.2834 19.506 21.2834C16.2008 21.2834 13.5215 23.9627 13.5215 27.2679C13.5215 30.573 16.2008 33.2523 19.506 33.2523Z" fill="#BCD2FB"/>
<path d="M19.2987 33.4738C22.6038 33.4738 25.2831 30.7945 25.2831 27.4893C25.2831 24.1842 22.6038 21.5049 19.2987 21.5049C15.9935 21.5049 13.3142 24.1842 13.3142 27.4893C13.3142 30.7945 15.9935 33.4738 19.2987 33.4738Z" fill="#BFD2FB"/>
<path d="M19.0885 33.6952C22.3936 33.6952 25.0729 31.0159 25.0729 27.7108C25.0729 24.4056 22.3936 21.7263 19.0885 21.7263C15.7833 21.7263 13.104 24.4056 13.104 27.7108C13.104 31.0159 15.7833 33.6952 19.0885 33.6952Z" fill="#C1D2FB"/>
<path d="M18.8785 33.9139C22.1836 33.9139 24.863 31.2345 24.863 27.9294C24.863 24.6243 22.1836 21.9449 18.8785 21.9449C15.5734 21.9449 12.894 24.6243 12.894 27.9294C12.894 31.2345 15.5734 33.9139 18.8785 33.9139Z" fill="#C4D2FB"/>
<path d="M18.6705 34.1353C21.9756 34.1353 24.655 31.456 24.655 28.1508C24.655 24.8457 21.9756 22.1664 18.6705 22.1664C15.3654 22.1664 12.686 24.8457 12.686 28.1508C12.686 31.456 15.3654 34.1353 18.6705 34.1353Z" fill="#C6D2FB"/>
<path d="M18.4605 34.3539C21.7657 34.3539 24.445 31.6746 24.445 28.3695C24.445 25.0643 21.7657 22.385 18.4605 22.385C15.1554 22.385 12.4761 25.0643 12.4761 28.3695C12.4761 31.6746 15.1554 34.3539 18.4605 34.3539Z" fill="#C9D1FB"/>
<path d="M18.2503 34.5754C21.5555 34.5754 24.2348 31.896 24.2348 28.5909C24.2348 25.2858 21.5555 22.6064 18.2503 22.6064C14.9452 22.6064 12.2659 25.2858 12.2659 28.5909C12.2659 31.896 14.9452 34.5754 18.2503 34.5754Z" fill="#CCD1FB"/>
<path d="M18.0431 34.7968C21.3482 34.7968 24.0275 32.1175 24.0275 28.8124C24.0275 25.5072 21.3482 22.8279 18.0431 22.8279C14.7379 22.8279 12.0586 25.5072 12.0586 28.8124C12.0586 32.1175 14.7379 34.7968 18.0431 34.7968Z" fill="#CED1FB"/>
<path d="M17.8329 35.0155C21.138 35.0155 23.8173 32.3361 23.8173 29.031C23.8173 25.7259 21.138 23.0465 17.8329 23.0465C14.5277 23.0465 11.8484 25.7259 11.8484 29.031C11.8484 32.3361 14.5277 35.0155 17.8329 35.0155Z" fill="#D1D1FB"/>
<path d="M17.6222 35.2369C20.9273 35.2369 23.6066 32.5576 23.6066 29.2524C23.6066 25.9473 20.9273 23.268 17.6222 23.268C14.317 23.268 11.6377 25.9473 11.6377 29.2524C11.6377 32.5576 14.317 35.2369 17.6222 35.2369Z" fill="#D3D1FB"/>
<path d="M17.4149 35.4555C20.72 35.4555 23.3994 32.7762 23.3994 29.4711C23.3994 26.1659 20.72 23.4866 17.4149 23.4866C14.1098 23.4866 11.4304 26.1659 11.4304 29.4711C11.4304 32.7762 14.1098 35.4555 17.4149 35.4555Z" fill="#D6D0FB"/>
<path d="M17.2047 35.677C20.5098 35.677 23.1892 32.9976 23.1892 29.6925C23.1892 26.3874 20.5098 23.708 17.2047 23.708C13.8996 23.708 11.2202 26.3874 11.2202 29.6925C11.2202 32.9976 13.8996 35.677 17.2047 35.677Z" fill="#D8D0FA"/>
<path d="M16.9945 35.8984C20.2996 35.8984 22.9789 33.2191 22.9789 29.9139C22.9789 26.6088 20.2996 23.9295 16.9945 23.9295C13.6893 23.9295 11.01 26.6088 11.01 29.9139C11.01 33.2191 13.6893 35.8984 16.9945 35.8984Z" fill="#DBD0FA"/>
<path d="M16.7872 36.1171C20.0923 36.1171 22.7717 33.4377 22.7717 30.1326C22.7717 26.8275 20.0923 24.1481 16.7872 24.1481C13.4821 24.1481 10.8027 26.8275 10.8027 30.1326C10.8027 33.4377 13.4821 36.1171 16.7872 36.1171Z" fill="#DED0FA"/>
<path d="M16.577 36.3385C19.8821 36.3385 22.5615 33.6592 22.5615 30.354C22.5615 27.0489 19.8821 24.3696 16.577 24.3696C13.2719 24.3696 10.5925 27.0489 10.5925 30.354C10.5925 33.6592 13.2719 36.3385 16.577 36.3385Z" fill="#E0D0FA"/>
<path d="M16.367 36.5571C19.6722 36.5571 22.3515 33.8778 22.3515 30.5727C22.3515 27.2675 19.6722 24.5882 16.367 24.5882C13.0619 24.5882 10.3826 27.2675 10.3826 30.5727C10.3826 33.8778 13.0619 36.5571 16.367 36.5571Z" fill="#E3CFFA"/>
<path d="M16.1563 36.7786C19.4615 36.7786 22.1408 34.0992 22.1408 30.7941C22.1408 27.489 19.4615 24.8096 16.1563 24.8096C12.8512 24.8096 10.1719 27.489 10.1719 30.7941C10.1719 34.0992 12.8512 36.7786 16.1563 36.7786Z" fill="#E5CFFA"/>
<path d="M15.9488 37C19.254 37 21.9333 34.3207 21.9333 31.0155C21.9333 27.7104 19.254 25.0311 15.9488 25.0311C12.6437 25.0311 9.96436 27.7104 9.96436 31.0155C9.96436 34.3207 12.6437 37 15.9488 37Z" fill="#E8CFFA"/>
</svg>
