<svg width="107" height="20" viewBox="0 0 107 20" fill="none" xmlns="http://www.w3.org/2000/svg">
<path d="M12.2768 0.0107127C16.1317 -0.00277927 19.9696 0.523813 23.6785 1.57514V4.35928L23.5194 4.41232C19.8319 3.33606 16.012 2.78049 12.1707 2.76171C6.70846 2.76171 3.42053 3.87537 3.42053 5.46631C3.42053 10.4513 25.6407 5.36025 25.6407 13.9778C25.6407 18.1143 21.7163 19.9969 12.7275 19.9969C8.00772 19.9969 3.23491 19.387 0.0795438 18.3529V15.3567L0.238631 15.2771C4.3073 16.6689 8.58718 17.3418 12.8866 17.2658C19.2239 17.2658 22.2467 16.1786 22.2467 14.1635C22.2467 9.04593 0 14.1635 0 5.70495C0 1.97287 4.26902 0.0107127 12.2768 0.0107127Z" fill="white"/>
<path d="M25.1506 0.647218L25.2037 0.541153H29.1015L38.435 11.0414L47.7155 0.541153H51.5868L51.6398 0.647218L40.1187 13.6399V19.6855H36.738V13.6399L25.1506 0.647218Z" fill="white"/>
<path d="M56.2 4.38593V19.6855H52.8325V0.541153H56.3061L74.5886 15.9733V0.541153H77.9561V19.6855H74.297L56.2 4.38593Z" fill="white"/>
<path d="M106.593 3.00711V6.10945H106.434C103.035 3.92451 99.0793 2.76252 95.0386 2.76184C87.8794 2.76184 83.902 5.57251 83.902 10.0006C83.902 14.4287 87.8794 17.2394 95.0386 17.2394C99.0722 17.2334 103.019 16.0667 106.407 13.8785H106.54V16.9809C103.006 19.0207 98.9855 20.0632 94.906 19.997C86.1559 19.997 80.4285 16.3379 80.4285 10.0006C80.4285 3.66338 86.1293 0.0042112 94.8 0.0042112C98.9296 -0.0749246 103.004 0.96256 106.593 3.00711Z" fill="white"/>
</svg>
