<svg width="116" height="140" viewBox="0 0 116 140" fill="none" xmlns="http://www.w3.org/2000/svg">
<path d="M58.2759 45.2793C70.7635 45.2793 80.8867 35.1561 80.8867 22.6685C80.8867 10.1808 70.7635 0.0576172 58.2759 0.0576172C45.7883 0.0576172 35.665 10.1808 35.665 22.6685C35.665 35.1561 45.7883 45.2793 58.2759 45.2793Z" fill="#00FF2A"/>
<path d="M56.1484 47.2173C68.6361 47.2173 78.7593 37.0941 78.7593 24.6064C78.7593 12.1188 68.6361 1.99561 56.1484 1.99561C43.6608 1.99561 33.5376 12.1188 33.5376 24.6064C33.5376 37.0941 43.6608 47.2173 56.1484 47.2173Z" fill="#00FE2E"/>
<path d="M54.0183 49.1553C66.5059 49.1553 76.6291 39.032 76.6291 26.5444C76.6291 14.0568 66.5059 3.93359 54.0183 3.93359C41.5307 3.93359 31.4075 14.0568 31.4075 26.5444C31.4075 39.032 41.5307 49.1553 54.0183 49.1553Z" fill="#00FE33"/>
<path d="M51.8889 51.0932C64.3765 51.0932 74.4997 40.97 74.4997 28.4824C74.4997 15.9948 64.3765 5.87158 51.8889 5.87158C39.4013 5.87158 29.2781 15.9948 29.2781 28.4824C29.2781 40.97 39.4013 51.0932 51.8889 51.0932Z" fill="#00FD37"/>
<path d="M49.7615 53.021C62.2491 53.021 72.3723 42.8978 72.3723 30.4102C72.3723 17.9225 62.2491 7.79932 49.7615 7.79932C37.2738 7.79932 27.1506 17.9225 27.1506 30.4102C27.1506 42.8978 37.2738 53.021 49.7615 53.021Z" fill="#00FC3C"/>
<path d="M47.6333 54.9592C60.1209 54.9592 70.2441 44.836 70.2441 32.3484C70.2441 19.8608 60.1209 9.73755 47.6333 9.73755C35.1457 9.73755 25.0225 19.8608 25.0225 32.3484C25.0225 44.836 35.1457 54.9592 47.6333 54.9592Z" fill="#00FC40"/>
<path d="M45.5039 56.8972C57.9915 56.8972 68.1147 46.774 68.1147 34.2864C68.1147 21.7987 57.9915 11.6755 45.5039 11.6755C33.0163 11.6755 22.8931 21.7987 22.8931 34.2864C22.8931 46.774 33.0163 56.8972 45.5039 56.8972Z" fill="#00FB44"/>
<path d="M43.374 58.8354C55.8616 58.8354 65.9848 48.7122 65.9848 36.2246C65.9848 23.737 55.8616 13.6138 43.374 13.6138C30.8864 13.6138 20.7632 23.737 20.7632 36.2246C20.7632 48.7122 30.8864 58.8354 43.374 58.8354Z" fill="#00FB49"/>
<path d="M41.2358 60.7627C53.7235 60.7627 63.8467 50.6395 63.8467 38.1519C63.8467 25.6642 53.7235 15.541 41.2358 15.541C28.7482 15.541 18.625 25.6642 18.625 38.1519C18.625 50.6395 28.7482 60.7627 41.2358 60.7627Z" fill="#00FA4D"/>
<path d="M39.1064 62.7007C51.5941 62.7007 61.7173 52.5775 61.7173 40.0898C61.7173 27.6022 51.5941 17.479 39.1064 17.479C26.6188 17.479 16.4956 27.6022 16.4956 40.0898C16.4956 52.5775 26.6188 62.7007 39.1064 62.7007Z" fill="#00F952"/>
<path d="M36.979 64.6387C49.4666 64.6387 59.5898 54.5154 59.5898 42.0278C59.5898 29.5402 49.4666 19.417 36.979 19.417C24.4914 19.417 14.3682 29.5402 14.3682 42.0278C14.3682 54.5154 24.4914 64.6387 36.979 64.6387Z" fill="#00F956"/>
<path d="M34.8489 66.5766C47.3365 66.5766 57.4597 56.4534 57.4597 43.9658C57.4597 31.4782 47.3365 21.355 34.8489 21.355C22.3613 21.355 12.238 31.4782 12.238 43.9658C12.238 56.4534 22.3613 66.5766 34.8489 66.5766Z" fill="#00F85B"/>
<path d="M32.7214 68.5046C45.209 68.5046 55.3323 58.3814 55.3323 45.8938C55.3323 33.4062 45.209 23.283 32.7214 23.283C20.2338 23.283 10.1106 33.4062 10.1106 45.8938C10.1106 58.3814 20.2338 68.5046 32.7214 68.5046Z" fill="#00F75F"/>
<path d="M30.592 70.4426C43.0797 70.4426 53.2029 60.3194 53.2029 47.8318C53.2029 35.3442 43.0797 25.2209 30.592 25.2209C18.1044 25.2209 7.9812 35.3442 7.9812 47.8318C7.9812 60.3194 18.1044 70.4426 30.592 70.4426Z" fill="#00F763"/>
<path d="M28.4643 72.3806C40.952 72.3806 51.0752 62.2574 51.0752 49.7698C51.0752 37.2821 40.952 27.1589 28.4643 27.1589C15.9767 27.1589 5.85352 37.2821 5.85352 49.7698C5.85352 62.2574 15.9767 72.3806 28.4643 72.3806Z" fill="#00F668"/>
<path d="M26.3345 74.3188C38.8221 74.3188 48.9453 64.1956 48.9453 51.708C48.9453 39.2204 38.8221 29.0972 26.3345 29.0972C13.8468 29.0972 3.72363 39.2204 3.72363 51.708C3.72363 64.1956 13.8468 74.3188 26.3345 74.3188Z" fill="#00F56C"/>
<path d="M24.2698 76.5639C36.7574 76.5639 46.8806 66.4407 46.8806 53.9531C46.8806 41.4655 36.7574 31.3423 24.2698 31.3423C11.7822 31.3423 1.65894 41.4655 1.65894 53.9531C1.65894 66.4407 11.7822 76.5639 24.2698 76.5639Z" fill="#00F571"/>
<path d="M23.0835 79.2009C35.5711 79.2009 45.6943 69.0777 45.6943 56.5901C45.6943 44.1025 35.5711 33.9792 23.0835 33.9792C10.5959 33.9792 0.472656 44.1025 0.472656 56.5901C0.472656 69.0777 10.5959 79.2009 23.0835 79.2009Z" fill="#00F475"/>
<path d="M22.8081 81.9651C35.2957 81.9651 45.4189 71.8419 45.4189 59.3542C45.4189 46.8666 35.2957 36.7434 22.8081 36.7434C10.3205 36.7434 0.197266 46.8666 0.197266 59.3542C0.197266 71.8419 10.3205 81.9651 22.8081 81.9651Z" fill="#00F479"/>
<path d="M23.3796 84.6548C35.8672 84.6548 45.9905 74.5316 45.9905 62.0439C45.9905 49.5563 35.8672 39.4331 23.3796 39.4331C10.892 39.4331 0.768799 49.5563 0.768799 62.0439C0.768799 74.5316 10.892 84.6548 23.3796 84.6548Z" fill="#00F37E"/>
<path d="M24.7153 87.0486C37.2029 87.0486 47.3262 76.9254 47.3262 64.4377C47.3262 51.9501 37.2029 41.8269 24.7153 41.8269C12.2277 41.8269 2.10449 51.9501 2.10449 64.4377C2.10449 76.9254 12.2277 87.0486 24.7153 87.0486Z" fill="#00F282"/>
<path d="M26.7168 88.9653C39.2044 88.9653 49.3276 78.8421 49.3276 66.3545C49.3276 53.8669 39.2044 43.7437 26.7168 43.7437C14.2292 43.7437 4.10596 53.8669 4.10596 66.3545C4.10596 78.8421 14.2292 88.9653 26.7168 88.9653Z" fill="#00F287"/>
<path d="M29.3315 90.1833C41.8192 90.1833 51.9424 80.0601 51.9424 67.5725C51.9424 55.0849 41.8192 44.9617 29.3315 44.9617C16.8439 44.9617 6.7207 55.0849 6.7207 67.5725C6.7207 80.0601 16.8439 90.1833 29.3315 90.1833Z" fill="#00F18B"/>
<path d="M32.3711 90.5112C44.8587 90.5112 54.9819 80.388 54.9819 67.9004C54.9819 55.4128 44.8587 45.2896 32.3711 45.2896C19.8835 45.2896 9.76025 55.4128 9.76025 67.9004C9.76025 80.388 19.8835 90.5112 32.3711 90.5112Z" fill="#00F090"/>
<path d="M35.2527 90.5112C47.7403 90.5112 57.8635 80.388 57.8635 67.9004C57.8635 55.4128 47.7403 45.2896 35.2527 45.2896C22.7651 45.2896 12.6418 55.4128 12.6418 67.9004C12.6418 80.388 22.7651 90.5112 35.2527 90.5112Z" fill="#00F094"/>
<path d="M38.1318 90.5112C50.6194 90.5112 60.7427 80.388 60.7427 67.9004C60.7427 55.4128 50.6194 45.2896 38.1318 45.2896C25.6442 45.2896 15.521 55.4128 15.521 67.9004C15.521 80.388 25.6442 90.5112 38.1318 90.5112Z" fill="#00EF98"/>
<path d="M41.0029 90.5112C53.4905 90.5112 63.6138 80.388 63.6138 67.9004C63.6138 55.4128 53.4905 45.2896 41.0029 45.2896C28.5153 45.2896 18.3921 55.4128 18.3921 67.9004C18.3921 80.388 28.5153 90.5112 41.0029 90.5112Z" fill="#00EF9D"/>
<path d="M43.8848 90.5112C56.3724 90.5112 66.4956 80.388 66.4956 67.9004C66.4956 55.4128 56.3724 45.2896 43.8848 45.2896C31.3971 45.2896 21.2739 55.4128 21.2739 67.9004C21.2739 80.388 31.3971 90.5112 43.8848 90.5112Z" fill="#00EEA1"/>
<path d="M46.7639 90.5112C59.2515 90.5112 69.3747 80.388 69.3747 67.9004C69.3747 55.4128 59.2515 45.2896 46.7639 45.2896C34.2763 45.2896 24.1531 55.4128 24.1531 67.9004C24.1531 80.388 34.2763 90.5112 46.7639 90.5112Z" fill="#00EDA6"/>
<path d="M49.635 90.5112C62.1226 90.5112 72.2458 80.388 72.2458 67.9004C72.2458 55.4128 62.1226 45.2896 49.635 45.2896C37.1474 45.2896 27.0242 55.4128 27.0242 67.9004C27.0242 80.388 37.1474 90.5112 49.635 90.5112Z" fill="#00EDAA"/>
<path d="M52.5146 90.5112C65.0023 90.5112 75.1255 80.388 75.1255 67.9004C75.1255 55.4128 65.0023 45.2896 52.5146 45.2896C40.027 45.2896 29.9038 55.4128 29.9038 67.9004C29.9038 80.388 40.027 90.5112 52.5146 90.5112Z" fill="#00ECAE"/>
<path d="M55.394 90.5112C67.8817 90.5112 78.0049 80.388 78.0049 67.9004C78.0049 55.4128 67.8817 45.2896 55.394 45.2896C42.9064 45.2896 32.7832 55.4128 32.7832 67.9004C32.7832 80.388 42.9064 90.5112 55.394 90.5112Z" fill="#00EBB3"/>
<path d="M58.2654 90.5112C70.753 90.5112 80.8762 80.388 80.8762 67.9004C80.8762 55.4128 70.753 45.2896 58.2654 45.2896C45.7778 45.2896 35.6545 55.4128 35.6545 67.9004C35.6545 80.388 45.7778 90.5112 58.2654 90.5112Z" fill="#00EBB7"/>
<path d="M61.147 90.5112C73.6346 90.5112 83.7578 80.388 83.7578 67.9004C83.7578 55.4128 73.6346 45.2896 61.147 45.2896C48.6593 45.2896 38.5361 55.4128 38.5361 67.9004C38.5361 80.388 48.6593 90.5112 61.147 90.5112Z" fill="#00EABC"/>
<path d="M64.0264 90.5112C76.514 90.5112 86.6372 80.388 86.6372 67.9004C86.6372 55.4128 76.514 45.2896 64.0264 45.2896C51.5387 45.2896 41.4155 55.4128 41.4155 67.9004C41.4155 80.388 51.5387 90.5112 64.0264 90.5112Z" fill="#00E9C0"/>
<path d="M66.9062 90.5112C79.3939 90.5112 89.5171 80.388 89.5171 67.9004C89.5171 55.4128 79.3939 45.2896 66.9062 45.2896C54.4186 45.2896 44.2954 55.4128 44.2954 67.9004C44.2954 80.388 54.4186 90.5112 66.9062 90.5112Z" fill="#00E9C5"/>
<path d="M69.7771 90.5112C82.2647 90.5112 92.3879 80.388 92.3879 67.9004C92.3879 55.4128 82.2647 45.2896 69.7771 45.2896C57.2895 45.2896 47.1663 55.4128 47.1663 67.9004C47.1663 80.388 57.2895 90.5112 69.7771 90.5112Z" fill="#00E8C9"/>
<path d="M72.6587 90.5112C85.1463 90.5112 95.2695 80.388 95.2695 67.9004C95.2695 55.4128 85.1463 45.2896 72.6587 45.2896C60.1711 45.2896 50.0479 55.4128 50.0479 67.9004C50.0479 80.388 60.1711 90.5112 72.6587 90.5112Z" fill="#00E8CD"/>
<path d="M75.5381 90.5112C88.0257 90.5112 98.1489 80.388 98.1489 67.9004C98.1489 55.4128 88.0257 45.2896 75.5381 45.2896C63.0505 45.2896 52.9272 55.4128 52.9272 67.9004C52.9272 80.388 63.0505 90.5112 75.5381 90.5112Z" fill="#00E7D2"/>
<path d="M78.4092 90.5112C90.8968 90.5112 101.02 80.388 101.02 67.9004C101.02 55.4128 90.8968 45.2896 78.4092 45.2896C65.9216 45.2896 55.7983 55.4128 55.7983 67.9004C55.7983 80.388 65.9216 90.5112 78.4092 90.5112Z" fill="#00E6D6"/>
<path d="M81.2883 90.5112C93.7759 90.5112 103.899 80.388 103.899 67.9004C103.899 55.4128 93.7759 45.2896 81.2883 45.2896C68.8007 45.2896 58.6775 55.4128 58.6775 67.9004C58.6775 80.388 68.8007 90.5112 81.2883 90.5112Z" fill="#00E6DB"/>
<path d="M84.1702 90.5112C96.6578 90.5112 106.781 80.388 106.781 67.9004C106.781 55.4128 96.6578 45.2896 84.1702 45.2896C71.6825 45.2896 61.5593 55.4128 61.5593 67.9004C61.5593 80.388 71.6825 90.5112 84.1702 90.5112Z" fill="#00E5DF"/>
<path d="M84.7415 90.5224C97.2291 90.5224 107.352 80.3992 107.352 67.9116C107.352 55.424 97.2291 45.3008 84.7415 45.3008C72.2538 45.3008 62.1306 55.424 62.1306 67.9116C62.1306 80.3992 72.2538 90.5224 84.7415 90.5224Z" fill="#03E5E0"/>
<path d="M85.2917 90.5749C97.7794 90.5749 107.903 80.4517 107.903 67.9641C107.903 55.4765 97.7794 45.3533 85.2917 45.3533C72.8041 45.3533 62.6809 55.4765 62.6809 67.9641C62.6809 80.4517 72.8041 90.5749 85.2917 90.5749Z" fill="#06E4E0"/>
<path d="M85.842 90.6599C98.3297 90.6599 108.453 80.5367 108.453 68.0491C108.453 55.5614 98.3297 45.4382 85.842 45.4382C73.3544 45.4382 63.2312 55.5614 63.2312 68.0491C63.2312 80.5367 73.3544 90.6599 85.842 90.6599Z" fill="#09E4E1"/>
<path d="M86.3713 90.7659C98.859 90.7659 108.982 80.6426 108.982 68.155C108.982 55.6674 98.859 45.5442 86.3713 45.5442C73.8837 45.5442 63.7605 55.6674 63.7605 68.155C63.7605 80.6426 73.8837 90.7659 86.3713 90.7659Z" fill="#0CE4E2"/>
<path d="M86.8816 90.9033C99.3692 90.9033 109.492 80.7801 109.492 68.2925C109.492 55.8049 99.3692 45.6816 86.8816 45.6816C74.394 45.6816 64.2708 55.8049 64.2708 68.2925C64.2708 80.7801 74.394 90.9033 86.8816 90.9033Z" fill="#0FE3E3"/>
<path d="M87.3794 91.073C99.867 91.073 109.99 80.9498 109.99 68.4621C109.99 55.9745 99.867 45.8513 87.3794 45.8513C74.8918 45.8513 64.7686 55.9745 64.7686 68.4621C64.7686 80.9498 74.8918 91.073 87.3794 91.073Z" fill="#12E3E3"/>
<path d="M87.8562 91.2742C100.344 91.2742 110.467 81.1509 110.467 68.6633C110.467 56.1757 100.344 46.0525 87.8562 46.0525C75.3686 46.0525 65.2454 56.1757 65.2454 68.6633C65.2454 81.1509 75.3686 91.2742 87.8562 91.2742Z" fill="#16E3E4"/>
<path d="M88.3225 91.4966C100.81 91.4966 110.933 81.3734 110.933 68.8857C110.933 56.3981 100.81 46.2749 88.3225 46.2749C75.8349 46.2749 65.7117 56.3981 65.7117 68.8857C65.7117 81.3734 75.8349 91.4966 88.3225 91.4966Z" fill="#19E2E5"/>
<path d="M88.7656 91.74C101.253 91.74 111.376 81.6168 111.376 69.1291C111.376 56.6415 101.253 46.5183 88.7656 46.5183C76.278 46.5183 66.1548 56.6415 66.1548 69.1291C66.1548 81.6168 76.278 91.74 88.7656 91.74Z" fill="#1CE2E6"/>
<path d="M89.1899 92.0049C101.678 92.0049 111.801 81.8817 111.801 69.394C111.801 56.9064 101.678 46.7832 89.1899 46.7832C76.7023 46.7832 66.5791 56.9064 66.5791 69.394C66.5791 81.8817 76.7023 92.0049 89.1899 92.0049Z" fill="#1FE2E6"/>
<path d="M89.5911 92.3013C102.079 92.3013 112.202 82.178 112.202 69.6904C112.202 57.2028 102.079 47.0796 89.5911 47.0796C77.1034 47.0796 66.9802 57.2028 66.9802 69.6904C66.9802 82.178 77.1034 92.3013 89.5911 92.3013Z" fill="#22E1E7"/>
<path d="M89.9836 92.6086C102.471 92.6086 112.594 82.4854 112.594 69.9978C112.594 57.5102 102.471 47.387 89.9836 47.387C77.496 47.387 67.3728 57.5102 67.3728 69.9978C67.3728 82.4854 77.496 92.6086 89.9836 92.6086Z" fill="#25E1E8"/>
<path d="M90.3555 92.9475C102.843 92.9475 112.966 82.8243 112.966 70.3367C112.966 57.849 102.843 47.7258 90.3555 47.7258C77.8678 47.7258 67.7446 57.849 67.7446 70.3367C67.7446 82.8243 77.8678 92.9475 90.3555 92.9475Z" fill="#28E1E9"/>
<path d="M90.7041 93.2971C103.192 93.2971 113.315 83.1739 113.315 70.6863C113.315 58.1987 103.192 48.0754 90.7041 48.0754C78.2165 48.0754 68.0933 58.1987 68.0933 70.6863C68.0933 83.1739 78.2165 93.2971 90.7041 93.2971Z" fill="#2BE0E9"/>
<path d="M91.032 93.6675C103.52 93.6675 113.643 83.5443 113.643 71.0566C113.643 58.569 103.52 48.4458 91.032 48.4458C78.5444 48.4458 68.4211 58.569 68.4211 71.0566C68.4211 83.5443 78.5444 93.6675 91.032 93.6675Z" fill="#2EE0EA"/>
<path d="M91.3406 94.0491C103.828 94.0491 113.951 83.9258 113.951 71.4382C113.951 58.9506 103.828 48.8274 91.3406 48.8274C78.8529 48.8274 68.7297 58.9506 68.7297 71.4382C68.7297 83.9258 78.8529 94.0491 91.3406 94.0491Z" fill="#31E0EB"/>
<path d="M91.626 94.4509C104.114 94.4509 114.237 84.3277 114.237 71.8401C114.237 59.3525 104.114 49.2292 91.626 49.2292C79.1383 49.2292 69.0151 59.3525 69.0151 71.8401C69.0151 84.3277 79.1383 94.4509 91.626 94.4509Z" fill="#34DFEB"/>
<path d="M91.8909 94.8642C104.378 94.8642 114.502 84.741 114.502 72.2534C114.502 59.7658 104.378 49.6426 91.8909 49.6426C79.4032 49.6426 69.28 59.7658 69.28 72.2534C69.28 84.741 79.4032 94.8642 91.8909 94.8642Z" fill="#37DFEC"/>
<path d="M92.1243 95.2986C104.612 95.2986 114.735 85.1754 114.735 72.6877C114.735 60.2001 104.612 50.0769 92.1243 50.0769C79.6366 50.0769 69.5134 60.2001 69.5134 72.6877C69.5134 85.1754 79.6366 95.2986 92.1243 95.2986Z" fill="#3ADFED"/>
<path d="M92.3467 95.7434C104.834 95.7434 114.958 85.6202 114.958 73.1326C114.958 60.6449 104.834 50.5217 92.3467 50.5217C79.8591 50.5217 69.7358 60.6449 69.7358 73.1326C69.7358 85.6202 79.8591 95.7434 92.3467 95.7434Z" fill="#3DDEEE"/>
<path d="M92.5356 96.188C105.023 96.188 115.146 86.0648 115.146 73.5771C115.146 61.0895 105.023 50.9663 92.5356 50.9663C80.048 50.9663 69.9248 61.0895 69.9248 73.5771C69.9248 86.0648 80.048 96.188 92.5356 96.188Z" fill="#41DEEE"/>
<path d="M92.7058 96.654C105.193 96.654 115.317 86.5308 115.317 74.0432C115.317 61.5556 105.193 51.4324 92.7058 51.4324C80.2182 51.4324 70.095 61.5556 70.095 74.0432C70.095 86.5308 80.2182 96.654 92.7058 96.654Z" fill="#44DDEF"/>
<path d="M92.8528 97.1199C105.34 97.1199 115.464 86.9966 115.464 74.509C115.464 62.0214 105.34 51.8982 92.8528 51.8982C80.3652 51.8982 70.2419 62.0214 70.2419 74.509C70.2419 86.9966 80.3652 97.1199 92.8528 97.1199Z" fill="#47DDF0"/>
<path d="M92.9707 97.5964C105.458 97.5964 115.582 87.4732 115.582 74.9856C115.582 62.498 105.458 52.3748 92.9707 52.3748C80.4831 52.3748 70.3599 62.498 70.3599 74.9856C70.3599 87.4732 80.4831 97.5964 92.9707 97.5964Z" fill="#4ADDF1"/>
<path d="M93.0652 98.084C105.553 98.084 115.676 87.9608 115.676 75.4731C115.676 62.9855 105.553 52.8623 93.0652 52.8623C80.5776 52.8623 70.4543 62.9855 70.4543 75.4731C70.4543 87.9608 80.5776 98.084 93.0652 98.084Z" fill="#4DDCF1"/>
<path d="M93.1406 98.571C105.628 98.571 115.751 88.4478 115.751 75.9602C115.751 63.4726 105.628 53.3494 93.1406 53.3494C80.653 53.3494 70.5298 63.4726 70.5298 75.9602C70.5298 88.4478 80.653 98.571 93.1406 98.571Z" fill="#50DCF2"/>
<path d="M93.1721 99.0581C105.66 99.0581 115.783 88.9349 115.783 76.4473C115.783 63.9596 105.66 53.8364 93.1721 53.8364C80.6845 53.8364 70.5613 63.9596 70.5613 76.4473C70.5613 88.9349 80.6845 99.0581 93.1721 99.0581Z" fill="#53DCF3"/>
<path d="M93.1929 99.5556C105.68 99.5556 115.804 89.4324 115.804 76.9448C115.804 64.4572 105.68 54.334 93.1929 54.334C80.7052 54.334 70.582 64.4572 70.582 76.9448C70.582 89.4324 80.7052 99.5556 93.1929 99.5556Z" fill="#56DBF3"/>
<path d="M93.1826 100.054C105.67 100.054 115.793 89.9307 115.793 77.4431C115.793 64.9555 105.67 54.8323 93.1826 54.8323C80.695 54.8323 70.5718 64.9555 70.5718 77.4431C70.5718 89.9307 80.695 100.054 93.1826 100.054Z" fill="#59DBF4"/>
<path d="M93.1406 100.552C105.628 100.552 115.751 90.4283 115.751 77.9407C115.751 65.4531 105.628 55.3298 93.1406 55.3298C80.653 55.3298 70.5298 65.4531 70.5298 77.9407C70.5298 90.4283 80.653 100.552 93.1406 100.552Z" fill="#5CDBF5"/>
<path d="M93.0652 101.049C105.553 101.049 115.676 90.9258 115.676 78.4382C115.676 65.9506 105.553 55.8274 93.0652 55.8274C80.5776 55.8274 70.4543 65.9506 70.4543 78.4382C70.4543 90.9258 80.5776 101.049 93.0652 101.049Z" fill="#5FDAF6"/>
<path d="M92.9707 101.536C105.458 101.536 115.582 91.4129 115.582 78.9253C115.582 66.4377 105.458 56.3145 92.9707 56.3145C80.4831 56.3145 70.3599 66.4377 70.3599 78.9253C70.3599 91.4129 80.4831 101.536 92.9707 101.536Z" fill="#62DAF6"/>
<path d="M92.8423 102.034C105.33 102.034 115.453 91.911 115.453 79.4233C115.453 66.9357 105.33 56.8125 92.8423 56.8125C80.3547 56.8125 70.2314 66.9357 70.2314 79.4233C70.2314 91.911 80.3547 102.034 92.8423 102.034Z" fill="#65DAF7"/>
<path d="M92.6846 102.521C105.172 102.521 115.295 92.398 115.295 79.9104C115.295 67.4228 105.172 57.2996 92.6846 57.2996C80.1969 57.2996 70.0737 67.4228 70.0737 79.9104C70.0737 92.398 80.1969 102.521 92.6846 102.521Z" fill="#68D9F8"/>
<path d="M92.4936 102.998C104.981 102.998 115.104 92.8743 115.104 80.3867C115.104 67.8991 104.981 57.7759 92.4936 57.7759C80.006 57.7759 69.8828 67.8991 69.8828 80.3867C69.8828 92.8743 80.006 102.998 92.4936 102.998Z" fill="#6CD9F9"/>
<path d="M92.271 103.475C104.759 103.475 114.882 93.3514 114.882 80.8638C114.882 68.3761 104.759 58.2529 92.271 58.2529C79.7834 58.2529 69.6602 68.3761 69.6602 80.8638C69.6602 93.3514 79.7834 103.475 92.271 103.475Z" fill="#6FD9F9"/>
<path d="M92.0273 103.941C104.515 103.941 114.638 93.8174 114.638 81.3298C114.638 68.8422 104.515 58.719 92.0273 58.719C79.5397 58.719 69.4165 68.8422 69.4165 81.3298C69.4165 93.8174 79.5397 103.941 92.0273 103.941Z" fill="#72D8FA"/>
<path d="M91.7419 104.406C104.23 104.406 114.353 94.283 114.353 81.7954C114.353 69.3078 104.23 59.1846 91.7419 59.1846C79.2543 59.1846 69.1311 69.3078 69.1311 81.7954C69.1311 94.283 79.2543 104.406 91.7419 104.406Z" fill="#75D8FB"/>
<path d="M91.4246 104.851C103.912 104.851 114.035 94.7281 114.035 82.2405C114.035 69.7529 103.912 59.6296 91.4246 59.6296C78.9369 59.6296 68.8137 69.7529 68.8137 82.2405C68.8137 94.7281 78.9369 104.851 91.4246 104.851Z" fill="#78D8FC"/>
<path d="M91.0742 105.296C103.562 105.296 113.685 95.1729 113.685 82.6853C113.685 70.1977 103.562 60.0745 91.0742 60.0745C78.5866 60.0745 68.4634 70.1977 68.4634 82.6853C68.4634 95.1729 78.5866 105.296 91.0742 105.296Z" fill="#7BD7FC"/>
<path d="M90.6934 105.72C103.181 105.72 113.304 95.5965 113.304 83.1089C113.304 70.6213 103.181 60.498 90.6934 60.498C78.2057 60.498 68.0825 70.6213 68.0825 83.1089C68.0825 95.5965 78.2057 105.72 90.6934 105.72Z" fill="#7ED7FD"/>
<path d="M89.9104 106.546C102.398 106.546 112.521 96.4227 112.521 83.9351C112.521 71.4474 102.398 61.3242 89.9104 61.3242C77.4228 61.3242 67.2996 71.4474 67.2996 83.9351C67.2996 96.4227 77.4228 106.546 89.9104 106.546Z" fill="#81D7FD"/>
<path d="M89.1162 107.382C101.604 107.382 111.727 97.2591 111.727 84.7715C111.727 72.2839 101.604 62.1606 89.1162 62.1606C76.6286 62.1606 66.5054 72.2839 66.5054 84.7715C66.5054 97.2591 76.6286 107.382 89.1162 107.382Z" fill="#83D7FD"/>
<path d="M88.3225 108.219C100.81 108.219 110.933 98.096 110.933 85.6084C110.933 73.1208 100.81 62.9976 88.3225 62.9976C75.8349 62.9976 65.7117 73.1208 65.7117 85.6084C65.7117 98.096 75.8349 108.219 88.3225 108.219Z" fill="#86D6FD"/>
<path d="M87.5371 109.045C100.025 109.045 110.148 98.9219 110.148 86.4343C110.148 73.9467 100.025 63.8235 87.5371 63.8235C75.0495 63.8235 64.9263 73.9467 64.9263 86.4343C64.9263 98.9219 75.0495 109.045 87.5371 109.045Z" fill="#88D6FD"/>
<path d="M86.7432 109.882C99.2308 109.882 109.354 99.7586 109.354 87.271C109.354 74.7834 99.2308 64.6602 86.7432 64.6602C74.2555 64.6602 64.1323 74.7834 64.1323 87.271C64.1323 99.7586 74.2555 109.882 86.7432 109.882Z" fill="#8BD6FD"/>
<path d="M85.949 110.718C98.4366 110.718 108.56 100.595 108.56 88.1074C108.56 75.6198 98.4366 65.4966 85.949 65.4966C73.4614 65.4966 63.3381 75.6198 63.3381 88.1074C63.3381 100.595 73.4614 110.718 85.949 110.718Z" fill="#8ED6FD"/>
<path d="M85.166 111.544C97.6536 111.544 107.777 101.421 107.777 88.9336C107.777 76.446 97.6536 66.3228 85.166 66.3228C72.6784 66.3228 62.5552 76.446 62.5552 88.9336C62.5552 101.421 72.6784 111.544 85.166 111.544Z" fill="#90D6FC"/>
<path d="M84.3718 112.381C96.8594 112.381 106.983 102.258 106.983 89.7703C106.983 77.2826 96.8594 67.1594 84.3718 67.1594C71.8842 67.1594 61.761 77.2826 61.761 89.7703C61.761 102.258 71.8842 112.381 84.3718 112.381Z" fill="#93D5FC"/>
<path d="M83.5757 113.207C96.0633 113.207 106.187 103.084 106.187 90.5962C106.187 78.1086 96.0633 67.9854 83.5757 67.9854C71.0881 67.9854 60.9648 78.1086 60.9648 90.5962C60.9648 103.084 71.0881 113.207 83.5757 113.207Z" fill="#95D5FC"/>
<path d="M82.7925 114.044C95.2801 114.044 105.403 103.92 105.403 91.4329C105.403 78.9452 95.2801 68.822 82.7925 68.822C70.3049 68.822 60.1816 78.9452 60.1816 91.4329C60.1816 103.92 70.3049 114.044 82.7925 114.044Z" fill="#98D5FC"/>
<path d="M81.9983 114.88C94.4859 114.88 104.609 104.757 104.609 92.2695C104.609 79.7819 94.4859 69.6587 81.9983 69.6587C69.5107 69.6587 59.3875 79.7819 59.3875 92.2695C59.3875 104.757 69.5107 114.88 81.9983 114.88Z" fill="#9AD5FC"/>
<path d="M81.2043 115.707C93.692 115.707 103.815 105.583 103.815 93.0957C103.815 80.6081 93.692 70.4849 81.2043 70.4849C68.7167 70.4849 58.5935 80.6081 58.5935 93.0957C58.5935 105.583 68.7167 115.707 81.2043 115.707Z" fill="#9DD5FC"/>
<path d="M80.4214 116.543C92.909 116.543 103.032 106.42 103.032 93.9324C103.032 81.4447 92.909 71.3215 80.4214 71.3215C67.9338 71.3215 57.8105 81.4447 57.8105 93.9324C57.8105 106.42 67.9338 116.543 80.4214 116.543Z" fill="#A0D4FC"/>
<path d="M79.6272 117.369C92.1148 117.369 102.238 107.246 102.238 94.7583C102.238 82.2707 92.1148 72.1475 79.6272 72.1475C67.1396 72.1475 57.0164 82.2707 57.0164 94.7583C57.0164 107.246 67.1396 117.369 79.6272 117.369Z" fill="#A2D4FC"/>
<path d="M78.8335 118.206C91.3211 118.206 101.444 108.082 101.444 95.5947C101.444 83.1071 91.3211 72.9839 78.8335 72.9839C66.3459 72.9839 56.2227 83.1071 56.2227 95.5947C56.2227 108.082 66.3459 118.206 78.8335 118.206Z" fill="#A5D4FC"/>
<path d="M78.0478 119.042C90.5355 119.042 100.659 108.919 100.659 96.4316C100.659 83.944 90.5355 73.8208 78.0478 73.8208C65.5602 73.8208 55.437 83.944 55.437 96.4316C55.437 108.919 65.5602 119.042 78.0478 119.042Z" fill="#A7D4FC"/>
<path d="M77.2539 119.868C89.7415 119.868 99.8647 109.745 99.8647 97.2576C99.8647 84.7699 89.7415 74.6467 77.2539 74.6467C64.7663 74.6467 54.6431 84.7699 54.6431 97.2576C54.6431 109.745 64.7663 119.868 77.2539 119.868Z" fill="#AAD4FC"/>
<path d="M76.46 120.705C88.9476 120.705 99.0708 110.582 99.0708 98.0942C99.0708 85.6066 88.9476 75.4834 76.46 75.4834C63.9723 75.4834 53.8491 85.6066 53.8491 98.0942C53.8491 110.582 63.9723 120.705 76.46 120.705Z" fill="#ADD3FC"/>
<path d="M75.6765 121.532C88.1641 121.532 98.2873 111.409 98.2873 98.9209C98.2873 86.4333 88.1641 76.3101 75.6765 76.3101C63.1889 76.3101 53.0657 86.4333 53.0657 98.9209C53.0657 111.409 63.1889 121.532 75.6765 121.532Z" fill="#AFD3FC"/>
<path d="M74.8828 122.368C87.3704 122.368 97.4936 112.245 97.4936 99.7573C97.4936 87.2697 87.3704 77.1465 74.8828 77.1465C62.3952 77.1465 52.272 87.2697 52.272 99.7573C52.272 112.245 62.3952 122.368 74.8828 122.368Z" fill="#B2D3FC"/>
<path d="M74.0867 123.205C86.5743 123.205 96.6975 113.082 96.6975 100.594C96.6975 88.1064 86.5743 77.9832 74.0867 77.9832C61.599 77.9832 51.4758 88.1064 51.4758 100.594C51.4758 113.082 61.599 123.205 74.0867 123.205Z" fill="#B4D3FB"/>
<path d="M73.3037 124.031C85.7913 124.031 95.9145 113.908 95.9145 101.42C95.9145 88.9323 85.7913 78.8091 73.3037 78.8091C60.8161 78.8091 50.6929 88.9323 50.6929 101.42C50.6929 113.908 60.8161 124.031 73.3037 124.031Z" fill="#B7D3FB"/>
<path d="M72.5093 124.868C84.9969 124.868 95.1201 114.744 95.1201 102.257C95.1201 89.7692 84.9969 79.646 72.5093 79.646C60.0217 79.646 49.8984 89.7692 49.8984 102.257C49.8984 114.744 60.0217 124.868 72.5093 124.868Z" fill="#B9D3FB"/>
<path d="M71.7156 125.694C84.2032 125.694 94.3264 115.57 94.3264 103.083C94.3264 90.5951 84.2032 80.4719 71.7156 80.4719C59.2279 80.4719 49.1047 90.5951 49.1047 103.083C49.1047 115.57 59.2279 125.694 71.7156 125.694Z" fill="#BCD2FB"/>
<path d="M70.9319 126.53C83.4195 126.53 93.5427 116.407 93.5427 103.919C93.5427 91.4318 83.4195 81.3086 70.9319 81.3086C58.4443 81.3086 48.321 91.4318 48.321 103.919C48.321 116.407 58.4443 126.53 70.9319 126.53Z" fill="#BFD2FB"/>
<path d="M70.1384 127.367C82.626 127.367 92.7493 117.244 92.7493 104.756C92.7493 92.2685 82.626 82.1453 70.1384 82.1453C57.6508 82.1453 47.5276 92.2685 47.5276 104.756C47.5276 117.244 57.6508 127.367 70.1384 127.367Z" fill="#C1D2FB"/>
<path d="M69.3445 128.193C81.8321 128.193 91.9553 118.07 91.9553 105.582C91.9553 93.0944 81.8321 82.9712 69.3445 82.9712C56.8569 82.9712 46.7336 93.0944 46.7336 105.582C46.7336 118.07 56.8569 128.193 69.3445 128.193Z" fill="#C4D2FB"/>
<path d="M68.5586 129.03C81.0462 129.03 91.1694 118.906 91.1694 106.419C91.1694 93.9311 81.0462 83.8079 68.5586 83.8079C56.071 83.8079 45.9478 93.9311 45.9478 106.419C45.9478 118.906 56.071 129.03 68.5586 129.03Z" fill="#C6D2FB"/>
<path d="M67.7646 129.855C80.2523 129.855 90.3755 119.732 90.3755 107.245C90.3755 94.757 80.2523 84.6338 67.7646 84.6338C55.277 84.6338 45.1538 94.757 45.1538 107.245C45.1538 119.732 55.277 129.855 67.7646 129.855Z" fill="#C9D1FB"/>
<path d="M66.9709 130.692C79.4586 130.692 89.5818 120.569 89.5818 108.081C89.5818 95.5937 79.4586 85.4705 66.9709 85.4705C54.4833 85.4705 44.3601 95.5937 44.3601 108.081C44.3601 120.569 54.4833 130.692 66.9709 130.692Z" fill="#CCD1FB"/>
<path d="M66.1875 131.529C78.6751 131.529 88.7983 121.406 88.7983 108.918C88.7983 96.4303 78.6751 86.3071 66.1875 86.3071C53.6999 86.3071 43.5767 96.4303 43.5767 108.918C43.5767 121.406 53.6999 131.529 66.1875 131.529Z" fill="#CED1FB"/>
<path d="M65.3938 132.355C77.8814 132.355 88.0046 122.232 88.0046 109.744C88.0046 97.2565 77.8814 87.1333 65.3938 87.1333C52.9062 87.1333 42.783 97.2565 42.783 109.744C42.783 122.232 52.9062 132.355 65.3938 132.355Z" fill="#D1D1FB"/>
<path d="M64.5977 133.192C77.0853 133.192 87.2085 123.068 87.2085 110.581C87.2085 98.0932 77.0853 87.97 64.5977 87.97C52.11 87.97 41.9868 98.0932 41.9868 110.581C41.9868 123.068 52.11 133.192 64.5977 133.192Z" fill="#D3D1FB"/>
<path d="M63.814 134.018C76.3016 134.018 86.4248 123.894 86.4248 111.407C86.4248 98.9191 76.3016 88.7959 63.814 88.7959C51.3263 88.7959 41.2031 98.9191 41.2031 111.407C41.2031 123.894 51.3263 134.018 63.814 134.018Z" fill="#D6D0FB"/>
<path d="M63.0203 134.854C75.5079 134.854 85.6311 124.731 85.6311 112.243C85.6311 99.7555 75.5079 89.6323 63.0203 89.6323C50.5326 89.6323 40.4094 99.7555 40.4094 112.243C40.4094 124.731 50.5326 134.854 63.0203 134.854Z" fill="#D8D0FA"/>
<path d="M62.2266 135.691C74.7142 135.691 84.8374 125.568 84.8374 113.08C84.8374 100.592 74.7142 90.4692 62.2266 90.4692C49.7389 90.4692 39.6157 100.592 39.6157 113.08C39.6157 125.568 49.7389 135.691 62.2266 135.691Z" fill="#DBD0FA"/>
<path d="M61.4431 136.517C73.9307 136.517 84.0539 126.394 84.0539 113.906C84.0539 101.418 73.9307 91.2952 61.4431 91.2952C48.9555 91.2952 38.8323 101.418 38.8323 113.906C38.8323 126.394 48.9555 136.517 61.4431 136.517Z" fill="#DED0FA"/>
<path d="M60.6494 137.354C73.137 137.354 83.2602 127.23 83.2602 114.743C83.2602 102.255 73.137 92.1318 60.6494 92.1318C48.1618 92.1318 38.0386 102.255 38.0386 114.743C38.0386 127.23 48.1618 137.354 60.6494 137.354Z" fill="#E0D0FA"/>
<path d="M59.855 138.179C72.3426 138.179 82.4658 128.056 82.4658 115.569C82.4658 103.081 72.3426 92.9578 59.855 92.9578C47.3674 92.9578 37.2441 103.081 37.2441 115.569C37.2441 128.056 47.3674 138.179 59.855 138.179Z" fill="#E3CFFA"/>
<path d="M59.0591 139.016C71.5467 139.016 81.6699 128.893 81.6699 116.405C81.6699 103.918 71.5467 93.7944 59.0591 93.7944C46.5715 93.7944 36.4482 103.918 36.4482 116.405C36.4482 128.893 46.5715 139.016 59.0591 139.016Z" fill="#E5CFFA"/>
<path d="M58.2759 139.853C70.7635 139.853 80.8867 129.73 80.8867 117.242C80.8867 104.754 70.7635 94.6311 58.2759 94.6311C45.7883 94.6311 35.665 104.754 35.665 117.242C35.665 129.73 45.7883 139.853 58.2759 139.853Z" fill="#E8CFFA"/>
</svg>
